<svg xmlns="http://www.w3.org/2000/svg" viewBox="0 0 400 80">
  <defs>
    <linearGradient id="sunGrad" x1="0%" y1="0%" x2="100%" y2="100%">
      <stop offset="0%" style="stop-color:#F7941D"/>
      <stop offset="100%" style="stop-color:#FBB03B"/>
    </linearGradient>
    <linearGradient id="snowGrad" x1="0%" y1="0%" x2="100%" y2="100%">
      <stop offset="0%" style="stop-color:#44C8F5"/>
      <stop offset="100%" style="stop-color:#00A0E4"/>
    </linearGradient>
  </defs>
  
  <!-- Sun/Snow Icon -->
  <circle cx="40" cy="40" r="25" fill="url(#sunGrad)"/>
  <g fill="url(#snowGrad)">
    <path d="M40 5 L42 15 L38 15 Z"/>
    <path d="M40 65 L42 75 L38 75 Z" transform="rotate(180 40 70)"/>
    <path d="M5 40 L15 42 L15 38 Z"/>
    <path d="M65 40 L75 42 L75 38 Z" transform="rotate(180 70 40)"/>
    <path d="M15 15 L22 20 L20 22 Z"/>
    <path d="M60 60 L67 65 L65 67 Z"/>
    <path d="M60 15 L67 20 L65 18 Z" transform="rotate(90 63 17)"/>
    <path d="M15 60 L22 65 L20 63 Z" transform="rotate(-90 18 62)"/>
  </g>
  <text x="22" y="48" font-family="Arial" font-size="18" fill="white" font-weight="bold">S</text>
  
  <!-- SEFA Text -->
  <text x="85" y="45" font-family="Arial Black, sans-serif" font-size="36" font-weight="900">
    <tspan fill="#44C8F5">S</tspan><tspan fill="#00A0E4">E</tspan><tspan fill="#44C8F5">F</tspan><tspan fill="#00A0E4">A</tspan>
  </text>
  
  <!-- IKLIMLENDIRME Text -->
  <text x="85" y="70" font-family="Arial, sans-serif" font-size="14" fill="#231F20" font-weight="600" letter-spacing="2">IKLIMLENDIRME</text>
  
  <!-- Daikin Logo Area -->
  <rect x="260" y="15" width="2" height="50" fill="#E0E0E0"/>
  <text x="280" y="52" font-family="Arial Black, sans-serif" font-size="28" fill="#00A0E4" font-weight="900">DAIKIN</text>
</svg>
